# Alias OBJ Model File
# Exported from SketchUp, (c) 2000-2012 Trimble Navigation Limited
# File units = meters

mtllib example.mtl

# g Mesh1 Model

usemtl Brick_Basket
v -10 0 10
vt -12.3031 -12.3031
vn 0 1 -0
v 10 0 -10
vt 12.3031 12.3031
v -10 0 -10
vt -12.3031 12.3031
f 1/1/1 2/2/1 3/3/1

v -2.5 0 10
vt -3.07579 -12.3031
f 2/2/1 1/1/1 4/4/1

usemtl Brick_Antique_01
v -10 5 10
vt 6.78794 5.32028
vn -1.9251e-16 0 -1
vt 1.69699 0
vt 6.78794 0
f 5/5/2 4/6/2 1/7/2

v -2.5 5 10
vt 1.69699 5.32028
f 4/6/2 5/5/2 6/8/2

usemtl Brick_Basket
vn -8.04803e-33 1 3.53386e-33
v -2.5 5 21
vt -3.07579 -25.8366
f 5/1/3 7/9/3 6/4/3

v -11 5 24
vt -13.5335 -29.5276
f 5/1/3 8/10/3 7/9/3

v -10 5 -10
f 8/10/3 5/1/3 9/3/3

usemtl Brick_Antique_01
vt -6.78794 5.32028
vn 1 0 -2.88765e-16
f 5/11/4 3/7/4 9/5/4

vt -6.78794 0
f 3/7/4 5/11/4 1/12/4

vn 0 0 1
v 10 5 -10
f 3/12/5 10/5/5 9/11/5

f 10/5/5 3/12/5 2/7/5

v 10 0 10
vn -1 0 2.88765e-16
f 11/7/6 10/11/6 2/12/6

v 10 5 10
f 10/11/6 11/7/6 12/5/6

vn 0 0 -1
v 2.5 5 10
vt -1.69699 5.32028
f 11/12/7 13/13/7 12/11/7

v 2.5 0 10
vt -1.69699 0
f 13/13/7 11/12/7 14/14/7

usemtl Brick_Basket
vt 3.07579 -12.3031
vt 12.3031 -12.3031
f 2/2/1 14/15/1 11/16/1

v -2.5 0 11
vt -3.07579 -13.5335
f 2/2/1 15/17/1 14/15/1

f 2/2/1 4/4/1 15/17/1

usemtl Brick_Antique_01
vn 1 1.25971e-17 -1.21126e-16
vt -7.46674 3.35101e-17
vt -6.78794 3.35101e-17
f 6/11/8 15/18/8 4/19/8

vt -14.2547 5.32028
f 15/18/8 6/11/8 7/20/8

usemtl Brick_Basket
vt 3.07579 25.86
vn 4.19858e-17 0.894427 -0.447214
v 2.5 0 11
vt -3.07579 12.1047
vt 3.07579 12.1047
f 7/21/9 16/22/9 15/23/9

v 2.5 5 21
vt -3.07579 25.86
f 16/22/9 7/21/9 17/24/9

v 11 5 24
vt 13.5335 -29.5276
vt 3.07579 -25.8366
f 7/9/3 18/25/3 17/26/3

f 7/9/3 8/10/3 18/25/3

usemtl Brick_Antique_01
v -11 0 24
vt -7.46674 0
vt 7.46674 5.32028
vt -7.46674 5.32028
f 19/27/5 18/28/5 8/29/5

v 11 0 24
vt 7.46674 0
f 18/28/5 19/27/5 20/30/5

v 11 0 -11
vt 7.46674 1.6556e-15
vn 1 -1.41448e-16 -1.70204e-16
vt -16.2911 5.32028
vt -16.2911 1.6556e-15
f 21/31/10 18/32/10 20/33/10

v 11 5 -11
f 18/32/10 21/31/10 22/28/10

v -11 5 -11
f 21/27/7 23/28/7 22/29/7

v -11 0 -11
f 23/28/7 21/27/7 24/30/7

vt 16.2911 -4.33773e-31
vn -1 3.706e-32 1.75288e-16
vt -7.46674 -4.33773e-31
f 19/34/11 23/29/11 24/35/11

vt 16.2911 5.32028
f 23/29/11 19/34/11 8/36/11

usemtl Brick_Basket
vt -13.5335 13.5335
f 9/3/3 23/37/3 8/10/3

vt 13.5335 13.5335
f 23/37/3 9/3/3 22/38/3

f 22/38/3 9/3/3 10/2/3

f 22/38/3 10/2/3 12/16/3

f 12/16/3 18/25/3 22/38/3

f 17/26/3 18/25/3 12/16/3

f 12/16/3 13/15/3 17/26/3

usemtl Brick_Antique_01
vn -1 3.23003e-19 3.39153e-17
vt 7.46674 8.59233e-19
vt 14.2547 5.32028
f 13/5/12 16/39/12 17/40/12

vt 6.78794 8.59233e-19
f 16/39/12 13/5/12 14/41/12

usemtl Brick_Basket
vt 3.07579 -13.5335
f 14/15/1 15/17/1 16/42/1

