# Alias OBJ Model File
# Exported from SketchUp, (c) 2000-2012 Trimble Navigation Limited
# File units = meters

mtllib example.mtl

# g Mesh1 Model

usemtl Brick_Basket
v -10 0 10
vt -12.3031 -12.3031
vn 0 1 -0
v 10 0 -10
vt 12.3031 12.3031
v -10 0 -10
vt -12.3031 12.3031
f 1/1/1 2/2/1 3/3/1

v -2.5 0 10
vt -3.07579 -12.3031
f 2/2/1 1/1/1 4/4/1

usemtl Brick_Antique_01
v -10 5 10
vt 6.78794 5.32028
vn -1.9251e-16 0 -1
vt 1.69699 0
vt 6.78794 0
f 5/5/2 4/6/2 1/7/2

v -2.5 5 10
vt 1.69699 5.32028
f 4/6/2 5/5/2 6/8/2

usemtl Brick_Basket
vn -8.04803e-33 1 3.53386e-33
v -2.5 5 21
vt -3.07579 -25.8366
f 5/1/3 7/9/3 6/4/3

v -11 5 10
vt -13.5335 -12.3031
f 8/10/3 7/9/3 5/1/3

v -16 5 24
vt -19.685 -29.5276
f 8/10/3 9/11/3 7/9/3

v -16 5 10
vt -19.685 -12.3031
f 9/11/3 8/10/3 10/12/3

usemtl Brick_Antique_01
v -11 0 10
vt 7.46674 0
vn -2.0626e-16 0 -1
vt 10.8607 5.32028
vt 7.46674 5.32028
f 11/13/4 10/14/4 8/15/4

v -16 0 10
vt 10.8607 0
f 10/14/4 11/13/4 12/16/4

v -16 0 24
vt 16.2911 0
vn -1 0 2.0626e-16
f 13/17/5 10/5/5 12/7/5

vt 16.2911 5.32028
f 10/5/5 13/17/5 9/18/5

vt -10.8607 0
vn 0 0 1
v 11 5 24
vt -10.8607 5.32028
f 13/19/6 14/15/6 9/20/6

v 11 0 24
f 14/15/6 13/19/6 15/13/6

v 11 0 -11
vt 7.46674 1.6556e-15
vn 1 -1.41448e-16 -1.70204e-16
vt -16.2911 5.32028
vt -16.2911 1.6556e-15
f 16/21/7 14/22/7 15/23/7

v 11 5 -11
f 14/22/7 16/21/7 17/15/7

vt -7.46674 0
vn 0 0 -1
v -11 5 -11
vt -7.46674 5.32028
f 16/24/8 18/15/8 17/25/8

v -11 0 -11
f 18/15/8 16/24/8 19/13/8

vn -1 0 1.37507e-16
f 11/7/9 18/25/9 19/24/9

f 18/25/9 11/7/9 8/5/9

usemtl Brick_Basket
v -10 5 -10
vt -13.5335 13.5335
f 20/3/3 18/26/3 8/10/3

vt 13.5335 13.5335
f 18/26/3 20/3/3 17/27/3

v 10 5 -10
f 17/27/3 20/3/3 21/2/3

usemtl Brick_Antique_01
vt -6.78794 0
vt -6.78794 5.32028
f 3/28/6 21/5/6 20/29/6

f 21/5/6 3/28/6 2/7/6

v 10 0 10
vn -1 0 2.88765e-16
f 22/7/10 21/29/10 2/28/10

v 10 5 10
f 21/29/10 22/7/10 23/5/10

v 2.5 5 10
vt -1.69699 5.32028
f 22/28/8 24/30/8 23/29/8

v 2.5 0 10
vt -1.69699 0
f 24/30/8 22/28/8 25/31/8

usemtl Brick_Basket
vt 3.07579 -12.3031
vt 12.3031 -12.3031
f 2/2/1 25/32/1 22/33/1

v -2.5 0 11
vt -3.07579 -13.5335
f 2/2/1 26/34/1 25/32/1

f 2/2/1 4/4/1 26/34/1

usemtl Brick_Antique_01
vn 1 1.25971e-17 -1.21126e-16
vt -7.46674 3.35101e-17
vt -6.78794 3.35101e-17
f 6/29/11 26/35/11 4/36/11

vt -14.2547 5.32028
f 26/35/11 6/29/11 7/37/11

usemtl Brick_Basket
vt 3.07579 25.86
vn 4.19858e-17 0.894427 -0.447214
v 2.5 0 11
vt -3.07579 12.1047
vt 3.07579 12.1047
f 7/38/12 27/39/12 26/40/12

v 2.5 5 21
vt -3.07579 25.86
f 27/39/12 7/38/12 28/41/12

vt 13.5335 -29.5276
vt 3.07579 -25.8366
f 7/9/3 14/42/3 28/43/3

f 7/9/3 9/11/3 14/42/3

f 28/43/3 14/42/3 23/33/3

f 23/33/3 14/42/3 17/27/3

f 17/27/3 21/2/3 23/33/3

f 23/33/3 24/32/3 28/43/3

usemtl Brick_Antique_01
vn -1 3.23003e-19 3.39153e-17
vt 7.46674 8.59233e-19
vt 14.2547 5.32028
f 24/5/13 27/44/13 28/45/13

vt 6.78794 8.59233e-19
f 27/44/13 24/5/13 25/46/13

usemtl Brick_Basket
vt 3.07579 -13.5335
f 25/32/1 26/34/1 27/47/1

usemtl Brick_Antique_01
vn 1 0 -2.88765e-16
f 5/29/14 3/7/14 20/5/14

f 3/7/14 5/29/14 1/28/14

usemtl Brick_Basket
f 8/10/3 5/1/3 20/3/3

