mtllib skybox.mtl

usemtl down
v -1 -1 -1
vt 0 1
vn 0 1 0
v -1 -1 1
vt 0 0
v 1 -1 1
vt 1 0
v 1 -1 -1
vt 1 1
f 1/1/1 2/2/1 3/3/1 4/4/1

usemtl negativeX
vt 0 -1
vn 1 0 0
vt 1 -1
v -1 1 -1
vt 1 0
v -1 1 1
vt 0 0
f 2/5/2 1/6/2 5/7/2 6/8/2

usemtl negativeZ
vt 0 0
vn 0 0 1
v 1 1 -1
vt 0 1
f 1/9/3 4/3/3 7/4/3 5/10/3

usemtl positiveX
vt 0 0
vn -1 0 0
vt 1 0
v 1 1 1
vt 0 1
f 4/11/4 3/12/4 8/4/4 7/13/4

usemtl positiveZ
vt 0 0
vn 0 0 -1
vt 1 0
vt 0 1
f 3/14/5 2/15/5 6/4/5 8/16/5

usemtl up
vt 0 -1
vn 0 -1 0
vt 0 0
vt -1 0
vt -1 -1
f 6/17/6 5/18/6 7/19/6 8/20/6

